<svg width="16" height="16" viewBox="0 0 16 16" fill="none" xmlns="http://www.w3.org/2000/svg">
<path fill-rule="evenodd" clip-rule="evenodd" d="M1.45146 7.73141C2.16943 6.40372 3.1906 5.16811 4.35271 4.27003C5.51818 3.36935 6.78618 2.83691 8.00743 2.83691C9.22868 2.83691 10.4967 3.36934 11.6621 4.27011C12.8243 5.16831 13.8455 6.40417 14.5635 7.73232C14.5928 7.7869 14.5928 7.85453 14.5636 7.90916C13.8456 9.23696 12.8243 10.4727 11.6622 11.3708C10.4967 12.2715 9.22868 12.804 8.00743 12.804C6.78618 12.804 5.51819 12.2715 4.35273 11.3708C3.19062 10.4726 2.16944 9.23677 1.45147 7.90868C1.42202 7.85397 1.42202 7.78612 1.45146 7.73141ZM1.45146 7.73141C1.45149 7.73135 1.45153 7.73128 1.45156 7.73122L0.92526 7.44727L1.45129 7.73171C1.45135 7.73161 1.4514 7.73151 1.45146 7.73141ZM8.00743 1.64087C6.4419 1.64087 4.92311 2.31764 3.62134 3.32365C2.3163 4.3322 1.18984 5.70065 0.399206 7.16282L0.39894 7.16331C0.178136 7.57258 0.178136 8.0675 0.39894 8.47676L0.399172 8.47719C1.1898 9.93977 2.31626 11.3084 3.62132 12.3171C4.9231 13.3232 6.4419 14 8.00743 14C9.57296 14 11.0917 13.3232 12.3935 12.3172C13.6986 11.3087 14.825 9.94021 15.6157 8.47805L15.6159 8.47755C15.8367 8.06829 15.8367 7.57337 15.6159 7.16411L15.6157 7.16368C14.8251 5.7011 13.6986 4.33243 12.3935 3.32377C11.0918 2.31764 9.57296 1.64087 8.00743 1.64087ZM6.71869 6.53168C7.43043 5.81994 8.5844 5.81994 9.29614 6.53168C10.0079 7.24342 10.0079 8.39739 9.29614 9.10913C8.5844 9.82088 7.43043 9.82088 6.71869 9.10913C6.00695 8.39739 6.00695 7.24342 6.71869 6.53168ZM5.91322 5.72621C7.06981 4.56962 8.94502 4.56962 10.1016 5.72621C11.2582 6.8828 11.2582 8.75802 10.1016 9.91461C8.94502 11.0712 7.06981 11.0712 5.91322 9.91461C4.75662 8.75802 4.75662 6.8828 5.91322 5.72621Z" fill="#E0DEEA"/>
</svg>
